<?xml version="1.0" encoding="UTF-8"?>
<svg version="1.1" xmlns="http://www.w3.org/2000/svg" width="1024" height="1024">
<path d="M0 0 C244.2 0 488.4 0 740 0 C740 97.02 740 194.04 740 294 C735.38 294 730.76 294 726 294 C726 201.6 726 109.2 726 14 C491.04 14 256.08 14 14 14 C14 290.21 14 566.42 14 851 C248.96 851 483.92 851 726 851 C726 819.98 726 788.96 726 757 C730.62 757 735.24 757 740 757 C740 792.64 740 828.28 740 865 C495.8 865 251.6 865 0 865 C0 579.55 0 294.1 0 0 Z " fill="#EAEAEC" transform="translate(31,79)"/>
<path d="M0 0 C18.81 0 37.62 0 57 0 C74.63984614 37.0573512 74.63984614 37.0573512 82.625 54.75 C88.3608101 67.4574045 94.24067454 80.09062592 100.20019531 92.69458008 C103.36383981 99.38764572 106.51424572 106.0856167 109.60546875 112.8125 C109.88651962 113.42392349 110.1675705 114.03534698 110.45713806 114.66529846 C111.76621327 117.51577992 113.0711952 120.36806703 114.37182617 123.22241211 C114.82404541 124.20991455 115.27626465 125.19741699 115.7421875 126.21484375 C116.32782471 127.50056274 116.32782471 127.50056274 116.92529297 128.81225586 C118.03961195 131.20134539 118.03961195 131.20134539 120 134 C128.86006036 114.68126465 137.66959583 95.3426576 146.34169006 75.93867493 C150.59505883 66.42657614 154.87921938 56.92827272 159.15859985 47.42785645 C163.11894589 38.6355796 167.07536705 29.84169922 171.00390625 21.03515625 C171.6152268 19.66601224 172.22655469 18.29687151 172.83789062 16.92773438 C173.96282418 14.40802143 175.08477865 11.88701051 176.20507812 9.36523438 C176.69556641 8.26630859 177.18605469 7.16738281 177.69140625 6.03515625 C178.11623291 5.0800415 178.54105957 4.12492676 178.97875977 3.14086914 C180 1 180 1 181 0 C182.77991924 -0.09370624 184.56356739 -0.11744271 186.34594727 -0.11352539 C188.05760826 -0.11341209 188.05760826 -0.11341209 189.80384827 -0.11329651 C191.0454924 -0.10813522 192.28713654 -0.10297394 193.56640625 -0.09765625 C195.46204567 -0.09553383 195.46204567 -0.09553383 197.39598083 -0.09336853 C200.76124889 -0.08870582 204.1264499 -0.0797148 207.49169922 -0.06866455 C210.9234967 -0.05844846 214.35530109 -0.05387049 217.78710938 -0.04882812 C224.52475824 -0.0377738 231.26237525 -0.0210171 238 0 C238 1.98 238 3.96 238 6 C237.14277344 6.10957031 236.28554688 6.21914063 235.40234375 6.33203125 C226.28235101 7.41677846 226.28235101 7.41677846 218 11 C213.21590606 19.29242949 213.85124044 28.56677013 213.85473633 37.8449707 C213.85137772 39.12715485 213.8480191 40.40933899 213.84455872 41.7303772 C213.83576126 45.23259336 213.8333824 48.73478505 213.83274293 52.23701119 C213.83202999 54.42966415 213.82989105 56.62231096 213.82724571 58.81496239 C213.81800623 66.47747566 213.81390906 74.13997158 213.81469727 81.80249023 C213.81529762 88.92395177 213.80475053 96.04533746 213.7889536 103.16677982 C213.77584065 109.29866492 213.77051494 115.43052535 213.77115268 121.56242436 C213.77140657 125.21684293 213.76861582 128.87119403 213.75797462 132.52559853 C213.74641611 136.60606627 213.75106337 140.686366 213.75708008 144.7668457 C213.75146057 145.96354385 213.74584106 147.160242 213.74005127 148.39320374 C213.76538048 155.17291724 214.35970998 161.41880404 216 168 C216.14446469 168.72753636 216.28892939 169.45507273 216.4377718 170.20465565 C216.84340461 172.21910708 216.84340461 172.21910708 219.04296875 173.1484375 C222.76810842 174.22119899 226.49666119 174.95663145 230.3125 175.625 C231.05306641 175.7590625 231.79363281 175.893125 232.55664062 176.03125 C234.37025044 176.35886984 236.18501524 176.68008494 238 177 C238 179.31 238 181.62 238 184 C211.93 184 185.86 184 159 184 C159 181.69 159 179.38 159 177 C160.10859375 176.80664062 161.2171875 176.61328125 162.359375 176.4140625 C163.82297476 176.15136511 165.28651327 175.88832633 166.75 175.625 C167.47960937 175.49867188 168.20921875 175.37234375 168.9609375 175.2421875 C174.25590606 174.3449422 174.25590606 174.3449422 179 172 C183.47727157 163.54293148 183.14250989 154.9180022 183.11352539 145.54711914 C183.11374443 143.68753067 183.11374443 143.68753067 183.1139679 141.79037476 C183.1133926 138.40864148 183.10839405 135.02697004 183.10139394 131.6452477 C183.09512211 128.10451901 183.09455358 124.56378941 183.09336853 121.02305603 C183.09026648 114.32612186 183.08206832 107.6292041 183.07201904 100.93227714 C183.06082287 93.30469269 183.05533864 85.67710743 183.05032361 78.0495168 C183.03988473 62.36633504 183.02230716 46.68316964 183 31 C182.47451065 32.16167694 181.9490213 33.32335388 181.40760803 34.52023315 C178.97099049 39.90673289 176.53433247 45.29321431 174.09765625 50.6796875 C173.4412852 52.13065134 173.4412852 52.13065134 172.77165413 53.61092758 C168.05591208 64.0353925 163.34012774 74.4598373 158.62109375 84.8828125 C143.67788207 117.89065154 128.80638036 150.93055876 114 184 C112.35 184 110.7 184 109 184 C104.07409151 174.3065158 99.34759447 164.55666335 94.90103149 154.63430786 C89.33247445 142.2163785 83.62690236 129.8670415 77.8125 117.5625 C76.46330436 114.70584118 75.1143162 111.84908452 73.765625 108.9921875 C73.4412294 108.3050618 73.1168338 107.6179361 72.78260803 106.9099884 C68.94183549 98.7673944 65.16731303 90.59453886 61.4074707 82.41430664 C60.87938812 81.26536926 60.35130554 80.11643188 59.80722046 78.93267822 C56.24471903 71.18059022 52.6828804 63.42819768 49.12109375 55.67578125 C48.32971323 53.95332785 47.5383314 52.23087504 46.74694824 50.50842285 C44.83128379 46.33895548 42.91563691 42.16948003 41 38 C40.92966788 52.8999631 40.87689398 67.79991325 40.84456348 82.70000744 C40.82914748 89.61964176 40.80815984 96.53917246 40.77368164 103.45874023 C40.74038869 110.14366889 40.72311757 116.82846798 40.71536827 123.51348305 C40.70984977 126.05659994 40.69907381 128.59971134 40.68280983 131.14278221 C39.62773377 151.65541967 39.62773377 151.65541967 46.0625 170.625 C51.75073975 175.22400235 58.87519527 176.2255647 66 177 C66 179.31 66 181.62 66 184 C44.22 184 22.44 184 0 184 C0 181.69 0 179.38 0 177 C0.92941406 176.82984375 1.85882813 176.6596875 2.81640625 176.484375 C12.53051714 174.70758401 12.53051714 174.70758401 21 170 C29.07441567 156.12024337 26.29248511 136.16173518 26.265625 120.76171875 C26.26607213 118.02700151 26.26891506 115.29228743 26.27142334 112.55757141 C26.27504016 106.85143057 26.27032183 101.14534187 26.26074219 95.43920898 C26.24983585 88.86742994 26.2534082 82.29577483 26.264395 75.72399873 C26.2735022 70.0462939 26.27473721 64.36862613 26.26951766 58.69091636 C26.26642011 55.31496228 26.26592751 51.93906629 26.27259064 48.56311607 C26.27769228 44.80200277 26.26989556 41.04112513 26.25878906 37.2800293 C26.26283752 36.18005615 26.26688599 35.08008301 26.27105713 33.94677734 C26.22895059 26.21612922 26.10716675 17.80899551 22 11 C15.41906639 7.02083084 7.50076481 6.82054699 0 6 C0 4.02 0 2.04 0 0 Z " fill="#ED7E1A" transform="translate(146,416)"/>
<path d="M0 0 C49.17 0 98.34 0 149 0 C149 13.2 149 26.4 149 40 C146.36 40 143.72 40 141 40 C140.65388672 38.64068359 140.65388672 38.64068359 140.30078125 37.25390625 C137.54538118 24.95105075 137.54538118 24.95105075 129.890625 15.6015625 C123.68932098 12.66738845 117.54522828 11.8723128 110.71923828 11.88647461 C109.4984256 11.88655014 108.27761292 11.88662567 107.01980591 11.88670349 C105.71647308 11.89186478 104.41314026 11.89702606 103.0703125 11.90234375 C101.71125338 11.90421099 100.35219358 11.90563345 98.99313354 11.90663147 C95.43231314 11.91043252 91.87153413 11.92024198 88.31072998 11.93133545 C84.67070068 11.94160165 81.03066463 11.94614021 77.390625 11.95117188 C70.26039983 11.96186661 63.13020263 11.97891378 56 12 C53.41213656 18.93274994 53.6488745 25.92845686 53.5859375 33.24609375 C53.56720314 34.62615589 53.54762808 36.00620685 53.5272522 37.38624573 C53.4761641 40.99792862 53.43641455 44.60964855 53.39910889 48.22149658 C53.35892199 51.91533394 53.30789705 55.60902031 53.2578125 59.30273438 C53.16132984 66.53505226 53.07683775 73.76744388 53 81 C58.74351625 80.88049551 64.48690256 80.75618539 70.23022461 80.62768555 C72.17843907 80.58474216 74.12668146 80.54304456 76.07495117 80.50268555 C97.28362214 81.46633783 97.28362214 81.46633783 117 76 C120.33756201 71.79714413 121.85165401 67.85095367 123.1875 62.6875 C124.92067989 56.07932011 124.92067989 56.07932011 126 55 C128.31 55 130.62 55 133 55 C133 76.45 133 97.9 133 120 C130.69 120 128.38 120 126 120 C125.62488281 118.75863281 125.24976563 117.51726562 124.86328125 116.23828125 C124.3471667 114.59609858 123.83019416 112.95418539 123.3125 111.3125 C122.94608398 110.08756836 122.94608398 110.08756836 122.57226562 108.83789062 C120.94831958 103.76048969 119.40713146 100.29746745 115 97 C108.53965559 94.52499709 102.13907743 94.65378317 95.28515625 94.5859375 C94.07427841 94.56657135 92.86340057 94.5472052 91.61582947 94.5272522 C87.76479033 94.46767962 83.91372095 94.42115984 80.0625 94.375 C77.44464873 94.33679973 74.82680976 94.29774682 72.20898438 94.2578125 C65.80609906 94.16199634 59.40313914 94.07688382 53 94 C53.08455925 102.74535375 53.17950246 111.49051632 53.28752708 120.23561192 C53.33737037 124.29677 53.38370098 128.35790358 53.421875 132.41918945 C53.45887962 136.34208489 53.50527972 140.26476911 53.55806351 144.18748283 C53.57652713 145.68047296 53.59166442 147.17350823 53.60334396 148.66656685 C53.62034499 150.76564058 53.64941092 152.86423902 53.68115234 154.96313477 C53.69447601 156.15560318 53.70779968 157.34807159 53.7215271 158.57667542 C54.02380982 162.29269906 54.76797588 165.48409795 56 169 C60.28558318 172.08097537 66.34297103 171.3055377 71.42578125 171.30078125 C72.44616989 171.30506638 73.46655853 171.3093515 74.51786804 171.31376648 C76.68060568 171.31950559 78.84336262 171.32001313 81.00610352 171.31567383 C84.26288385 171.31254763 87.51872479 171.33586031 90.77539062 171.36132812 C108.14788066 171.41539129 127.0626462 171.33301367 140.75 158.9375 C146.3781309 152.75623585 151.13394782 144.82708666 154 137 C157.3 137 160.6 137 164 137 C162.63466691 142.24801105 161.26529884 147.49494716 159.89233398 152.7409668 C159.42673049 154.522259 158.96219192 156.30382994 158.4987793 158.08569336 C157.8288748 160.66075143 157.15502686 163.23475133 156.48046875 165.80859375 C156.27721481 166.59334579 156.07396088 167.37809784 155.86454773 168.18663025 C154.44964151 173.56455642 152.76683334 178.69949999 151 184 C101.17 184 51.34 184 0 184 C0 181.69 0 179.38 0 177 C1.53720703 176.72736328 1.53720703 176.72736328 3.10546875 176.44921875 C4.4662429 176.19583322 5.82691473 175.9418978 7.1875 175.6875 C8.19780273 175.51057617 8.19780273 175.51057617 9.22851562 175.33007812 C13.39528162 174.5373763 16.80493824 173.84320771 20 171 C23.69349465 163.78883232 23.42591765 156.0813295 23.38818359 148.17773438 C23.39225614 146.8018604 23.39760183 145.42598971 23.40411377 144.05012512 C23.41771215 140.33727964 23.41251994 136.62468613 23.40297651 132.91183662 C23.39534089 129.01230351 23.4024363 125.11279087 23.40713501 121.21325684 C23.41258126 114.66670896 23.40543075 108.12026287 23.39111328 101.57373047 C23.3747889 94.02271984 23.38007822 86.47195229 23.3965925 78.92094755 C23.41023971 72.41874736 23.41211126 65.91662001 23.40427649 59.41441011 C23.3996177 55.53926902 23.39892539 51.66424189 23.40888596 47.78910828 C23.41760066 44.14460146 23.4114524 40.50040572 23.39420319 36.85593224 C23.38839368 34.89324233 23.39721531 32.93052587 23.40658569 30.96784973 C23.33904734 21.13198545 23.33904734 21.13198545 20 12 C14.42611664 7.38614666 6.9459162 6.87981605 0 6 C0 4.02 0 2.04 0 0 Z " fill="#ED7E1A" transform="translate(656,416)"/>
<path d="M0 0 C-0.00276538 1.22306886 -0.00276538 1.22306886 -0.00558662 2.47084618 C-0.04980803 22.33592292 -0.08287718 42.20099114 -0.10362434 62.0661068 C-0.11392489 71.6728327 -0.12796185 81.27952569 -0.15087891 90.88623047 C-0.17085021 99.26210129 -0.18372531 107.63794826 -0.18817699 116.01384223 C-0.19077804 120.44637545 -0.19686612 124.87884047 -0.21146011 129.31135178 C-0.22510317 133.48915716 -0.22920913 137.66686668 -0.22621536 141.84469223 C-0.22676253 143.37242658 -0.23069974 144.90016435 -0.23841095 146.42787933 C-0.2772667 154.52775475 0.05771351 162.09719143 2 170 C7.61 170.66 13.22 171.32 19 172 C19 173.65 19 175.3 19 177 C18.20416504 177.28198242 17.40833008 177.56396484 16.58837891 177.85449219 C13.58715847 178.91897734 10.58658935 179.98527452 7.58642578 181.05273438 C6.29696355 181.51112423 5.00725678 181.96882688 3.71728516 182.42578125 C-3.21579728 184.88225801 -10.10028322 187.35310397 -16.83837891 190.30957031 C-19 191 -19 191 -24 191 C-24.495 183.575 -24.495 183.575 -25 176 C-25.99 177.051875 -26.98 178.10375 -28 179.1875 C-36.08370515 187.22250813 -45.33013417 191.35951074 -56.76757812 191.41015625 C-57.64865234 191.39855469 -58.52972656 191.38695312 -59.4375 191.375 C-60.31470703 191.38660156 -61.19191406 191.39820313 -62.09570312 191.41015625 C-74.53020374 191.35517688 -85.1356691 186.82366278 -94.1875 178.3125 C-107.32097303 164.35818491 -112.72919092 147.03345766 -112.25 128.1875 C-111.21749909 106.05068045 -102.03071967 87.06308383 -85.84765625 71.99609375 C-73.20440602 61.41051535 -58.84789567 59.78192789 -43 61 C-37.32218971 62.16079677 -33.01655679 64.22282235 -28.35083008 67.58520508 C-27.72267899 68.03696609 -27.09452789 68.48872711 -26.44734192 68.95417786 C-25.96971909 69.29929916 -25.49209625 69.64442047 -25 70 C-24.9492473 63.39806403 -24.91424424 56.79617847 -24.89013672 50.1940918 C-24.88008556 47.94862996 -24.86644256 45.70318119 -24.84912109 43.45776367 C-24.82483419 40.22832003 -24.81350793 36.99904962 -24.8046875 33.76953125 C-24.79436493 32.76727005 -24.78404236 31.76500885 -24.77340698 30.7323761 C-24.77325592 29.79177841 -24.77310486 28.85118073 -24.77294922 27.88208008 C-24.768508 27.05823318 -24.76406677 26.23438629 -24.75949097 25.38557434 C-25.03968287 22.6063913 -25.76888652 20.50185029 -27 18 C-30.00313748 16.49843126 -32.79067522 16.90718796 -36.125 16.9375 C-37.40632812 16.94652344 -38.68765625 16.95554687 -40.0078125 16.96484375 C-40.99523437 16.97644531 -41.98265625 16.98804688 -43 17 C-43 15.02 -43 13.04 -43 11 C-42.13834229 10.7733667 -41.27668457 10.5467334 -40.38891602 10.31323242 C-37.15098781 9.46009303 -33.91377909 8.60431792 -30.67700195 7.74682617 C-29.283721 7.37827674 -27.89017203 7.01073884 -26.49633789 6.64428711 C-17.06478974 4.18545121 -17.06478974 4.18545121 -7.77734375 1.23828125 C-4 0 -4 0 0 0 Z M-68 74 C-68.61230469 74.38929688 -69.22460938 74.77859375 -69.85546875 75.1796875 C-80.45242226 83.08646517 -84.4718657 97.0133559 -86.58984375 109.46875 C-88.83295565 128.78087535 -85.37717679 149.16871881 -73.14453125 164.72265625 C-67.35558112 170.8701206 -60.66235895 174.58833381 -52.1953125 175.3359375 C-41.38935156 175.70563299 -41.38935156 175.70563299 -32 171 C-26.63940135 165.68144526 -23.88407567 162.43281843 -23.83886719 154.78125 C-23.82925964 153.4722876 -23.8196521 152.1633252 -23.80975342 150.81469727 C-23.80490268 149.37646662 -23.80062453 147.93823394 -23.796875 146.5 C-23.79112035 145.02465819 -23.78536266 143.54931639 -23.77960205 142.07397461 C-23.76908462 138.97362927 -23.76324829 135.87330989 -23.75976562 132.77294922 C-23.75431006 128.82342492 -23.73034903 124.87425049 -23.70179367 120.92483521 C-23.68304447 117.87224374 -23.67795499 114.81973399 -23.67642975 111.76708984 C-23.67342516 110.31280628 -23.66547182 108.85852339 -23.65224457 107.40429688 C-23.56611429 97.19784021 -23.82256336 87.0122424 -30.33984375 78.6015625 C-37.70720144 71.4942292 -45.4993273 69.6307224 -55.41796875 69.72265625 C-60.33864921 70.10364678 -63.86369364 71.36403723 -68 74 Z " fill="#ED7E1A" transform="translate(632,410)"/>
<path d="M0 0 C10.14879416 7.88483239 15.6131385 18.36660822 17.5390625 30.97265625 C17.5390625 34.60265625 17.5390625 38.23265625 17.5390625 41.97265625 C-10.8409375 41.97265625 -39.2209375 41.97265625 -68.4609375 41.97265625 C-64.51321383 68.8793435 -64.51321383 68.8793435 -48.421875 89.66015625 C-37.64185079 96.87547126 -27.17554617 98.08467904 -14.4609375 96.97265625 C-10.78294315 96.10486541 -7.732223 94.84383156 -4.4609375 92.97265625 C-3.4709375 92.43640625 -2.4809375 91.90015625 -1.4609375 91.34765625 C5.88331852 85.53345356 11.98418782 79.17143068 16.5390625 70.97265625 C18.8490625 71.30265625 21.1590625 71.63265625 23.5390625 71.97265625 C19.73555577 85.39679766 12.22656189 95.27071945 2.5390625 104.97265625 C1.93191406 105.59140625 1.32476562 106.21015625 0.69921875 106.84765625 C-11.38050968 118.18901497 -26.17392129 119.56291488 -41.86328125 119.28125 C-54.7773981 118.76519924 -64.62852795 113.16683446 -73.5859375 104.03515625 C-86.71081772 88.35969202 -90.87016871 68.43486195 -89.68408203 48.47216797 C-88.0892118 30.60752744 -79.65726447 14.52568747 -66.7109375 2.22265625 C-47.95286711 -13.39676063 -19.75672582 -13.40838309 0 0 Z M-58.7109375 10.16015625 C-64.60960314 17.22928403 -66.3130833 22.78982262 -67.4609375 31.97265625 C-48.9809375 31.97265625 -30.5009375 31.97265625 -11.4609375 31.97265625 C-14.0380103 16.50149773 -14.0380103 16.50149773 -23.6171875 5.12890625 C-35.06254509 -2.04869088 -49.78659785 0.84496961 -58.7109375 10.16015625 Z " fill="#ED7E1A" transform="translate(485.4609375,482.02734375)"/>
<path d="M0 0 C1.98 0 3.96 0 6 0 C11.54961102 10.75476342 16.48878811 21.7171357 21.3125 32.8125 C22.09832068 34.61223242 22.88454353 36.41178928 23.67114258 38.21118164 C25.30218389 41.9431667 26.93151342 45.67589178 28.55957031 49.40917969 C33.16232363 59.95938804 37.79556217 70.49626693 42.42749023 81.03369141 C43.16652199 82.71516132 43.90553577 84.39663914 44.64453125 86.078125 C45.00620895 86.90093964 45.36788666 87.72375427 45.74052429 88.57150269 C47.92187444 93.53684763 50.09426502 98.50600166 52.25953674 103.4783783 C53.63615077 106.63777408 55.01712771 109.79525165 56.39883423 112.9524231 C57.04086368 114.42244514 57.68087597 115.89335012 58.31869507 117.36520386 C59.19421249 119.3851219 60.07677186 121.40182439 60.9609375 123.41796875 C61.45384277 124.55000732 61.94674805 125.6820459 62.45458984 126.84838867 C65.3893643 132.83338132 67.68581606 136.50063552 74 139 C76.23525035 139.68636625 76.23525035 139.68636625 78 140 C78 141.32 78 142.64 78 144 C59.85 144 41.7 144 23 144 C23 142.68 23 141.36 23 140 C23.84304688 139.89042969 24.68609375 139.78085937 25.5546875 139.66796875 C26.65039062 139.50941406 27.74609375 139.35085938 28.875 139.1875 C29.96554687 139.03667969 31.05609375 138.88585937 32.1796875 138.73046875 C35.31238846 138.25334259 35.31238846 138.25334259 37 135 C36.87907676 126.98682027 34.03793336 120.42615807 30.9375 113.125 C30.00461101 110.90032066 29.07600867 108.67383739 28.15234375 106.4453125 C27.73976318 105.47094238 27.32718262 104.49657227 26.90209961 103.49267578 C26 101 26 101 26 98 C7.52 98.33 -10.96 98.66 -30 99 C-37.90886334 114.99155155 -37.90886334 114.99155155 -40.375 134.8125 C-38.55676315 137.70514954 -37.28223514 138.12473729 -34 139 C-31.67402489 139.3813074 -29.34087842 139.72460254 -27 140 C-27 141.32 -27 142.64 -27 144 C-41.19 144 -55.38 144 -70 144 C-70 142.68 -70 141.36 -70 140 C-67.11914062 139.12109375 -67.11914062 139.12109375 -64.23828125 138.2421875 C-58.90183616 135.28060017 -55.94163298 129.52968743 -53.36328125 124.19921875 C-52.86203484 123.17860603 -52.86203484 123.17860603 -52.35066223 122.13737488 C-47.2343987 111.54217615 -42.75853203 100.65001734 -38.1875 89.8125 C-37.1775243 87.42868682 -36.16710121 85.04506315 -35.15625 82.66162109 C-32.09715228 75.4440368 -29.04774871 68.2223824 -26 61 C-25.06466002 58.78464933 -24.1292772 56.56931675 -23.19384766 54.35400391 C-22.30239067 52.2425207 -21.41095146 50.13102998 -20.51953125 48.01953125 C-19.87566719 46.49447716 -19.87566719 46.49447716 -19.21879578 44.93861389 C-17.21122331 40.18257482 -15.20534508 35.42583954 -13.20385742 30.66723633 C-8.88538479 20.40756798 -4.49449474 10.18384129 0 0 Z M-3 32 C-5.4746755 37.88467011 -7.94623761 43.77064106 -10.41577148 49.6574707 C-11.25394427 51.65450708 -12.0927954 53.65125891 -12.93237305 55.64770508 C-14.14816609 58.5391057 -15.36140869 61.43156584 -16.57421875 64.32421875 C-16.94214035 65.19769455 -17.31006195 66.07117035 -17.68913269 66.97111511 C-20.60486983 73.93584143 -23.28584718 80.94320268 -26 88 C-10.49 88 5.02 88 21 88 C18.68693975 80.96087683 18.68693975 80.96087683 16.0546875 74.09448242 C15.70422363 73.24718063 15.35375977 72.39987885 14.99267578 71.52690125 C14.62384277 70.64532852 14.25500977 69.7637558 13.875 68.85546875 C13.48683105 67.92326004 13.09866211 66.99105133 12.69873047 66.03059387 C11.88351522 64.07609113 11.066597 62.12229789 10.24804688 60.16918945 C8.99737394 57.18122613 7.75628346 54.18939868 6.515625 51.19726562 C5.71932914 49.29142459 4.9224737 47.38581724 4.125 45.48046875 C3.75616699 44.58877487 3.38733398 43.69708099 3.00732422 42.77836609 C2.65686035 41.9468251 2.30639648 41.11528412 1.9453125 40.25854492 C1.64125488 39.53068283 1.33719727 38.80282074 1.02392578 38.05290222 C-0.09285895 35.81382407 -1.44560614 33.95519195 -3 32 Z " fill="#ED7E1A" transform="translate(673,656)"/>
<path d="M0 0 C21.12 0 42.24 0 64 0 C64 1.32 64 2.64 64 4 C63.11957031 4.09796875 62.23914063 4.1959375 61.33203125 4.296875 C60.17058594 4.44640625 59.00914062 4.5959375 57.8125 4.75 C56.08966797 4.95882812 56.08966797 4.95882812 54.33203125 5.171875 C50.37706936 6.15481981 48.6743612 6.90287122 46 10 C43.95024713 16.61591556 43.71005587 23.37777414 43.74121094 30.24804688 C43.7377063 31.21855484 43.73420166 32.18906281 43.73059082 33.1889801 C43.72185919 36.36564497 43.72759224 39.54208326 43.734375 42.71875 C43.73302589 44.94494672 43.73108331 47.17114315 43.72857666 49.39733887 C43.72563699 54.0505658 43.72988575 58.70371566 43.73925781 63.35693359 C43.75065157 69.30152269 43.74408589 75.24593113 43.73211288 81.19051361 C43.72486301 85.78376612 43.72719657 90.37697627 43.73236847 94.9702301 C43.73369632 97.16134157 43.73208778 99.35245697 43.72740936 101.54356384 C43.72229256 104.6131296 43.73012639 107.68240856 43.74121094 110.75195312 C43.73716248 111.64471451 43.73311401 112.53747589 43.72894287 113.45729065 C43.58584906 123.65262853 43.58584906 123.65262853 47.37398911 132.71387482 C51.8727125 136.27222825 58.47467035 136.41838635 64 137 C64 138.32 64 139.64 64 141 C42.88 141 21.76 141 0 141 C0 139.68 0 138.36 0 137 C0.89203125 136.87882813 1.7840625 136.75765625 2.703125 136.6328125 C3.87359375 136.46523438 5.0440625 136.29765625 6.25 136.125 C7.41015625 135.96257812 8.5703125 135.80015625 9.765625 135.6328125 C13.38328908 134.92500866 16.06898867 134.37201669 18.1875 131.25 C20.34586809 125.27298067 20.15371707 119.10487001 20.16113281 112.83886719 C20.16609772 111.82992905 20.17106262 110.82099091 20.17617798 109.78147888 C20.19074801 106.45327057 20.19759304 103.12510993 20.203125 99.796875 C20.20888072 97.47528076 20.2146384 95.15368652 20.22039795 92.83209229 C20.23089328 87.96667256 20.23674555 83.10126929 20.24023438 78.23583984 C20.24571579 72.01757748 20.26974275 65.79953444 20.29820633 59.58134079 C20.31687828 54.78563817 20.32204074 49.98998791 20.32357025 45.19425201 C20.32658703 42.90264945 20.33458242 40.61104759 20.34775543 38.3194809 C20.364911 35.10572361 20.36291235 31.8924961 20.35644531 28.67871094 C20.3656601 27.74226242 20.37487488 26.8058139 20.3843689 25.84098816 C20.34586807 19.69815695 19.76503428 13.58008395 17 8 C12.17013282 4.55409965 5.75980048 4.38665327 0 4 C0 2.68 0 1.36 0 0 Z " fill="#ED7E1A" transform="translate(757,659)"/>
<path d="M0 0 C10.23 0 20.46 0 31 0 C31 10.23 31 20.46 31 31 C20.77 31 10.54 31 0 31 C0 20.77 0 10.54 0 0 Z " fill="#ED7E1A" transform="translate(961,568)"/>
<path d="M0 0 C10.23 0 20.46 0 31 0 C31 10.23 31 20.46 31 31 C20.77 31 10.54 31 0 31 C0 20.77 0 10.54 0 0 Z " fill="#ED7E1A" transform="translate(835,568)"/>
<path d="M0 0 C10.23 0 20.46 0 31 0 C31 10.23 31 20.46 31 31 C20.77 31 10.54 31 0 31 C0 20.77 0 10.54 0 0 Z " fill="#ED7E1A" transform="translate(929,537)"/>
<path d="M0 0 C10.23 0 20.46 0 31 0 C31 10.23 31 20.46 31 31 C20.77 31 10.54 31 0 31 C0 20.77 0 10.54 0 0 Z " fill="#ED7E1A" transform="translate(866,537)"/>
<path d="M0 0 C10.23 0 20.46 0 31 0 C31 10.23 31 20.46 31 31 C20.77 31 10.54 31 0 31 C0 20.77 0 10.54 0 0 Z " fill="#ED7E1A" transform="translate(898,506)"/>
<path d="M0 0 C10.23 0 20.46 0 31 0 C31 10.23 31 20.46 31 31 C20.77 31 10.54 31 0 31 C0 20.77 0 10.54 0 0 Z " fill="#ED7E1A" transform="translate(929,475)"/>
<path d="M0 0 C10.23 0 20.46 0 31 0 C31 10.23 31 20.46 31 31 C20.77 31 10.54 31 0 31 C0 20.77 0 10.54 0 0 Z " fill="#ED7E1A" transform="translate(866,475)"/>
<path d="M0 0 C10.23 0 20.46 0 31 0 C31 10.23 31 20.46 31 31 C20.77 31 10.54 31 0 31 C0 20.77 0 10.54 0 0 Z " fill="#ED7E1A" transform="translate(961,444)"/>
<path d="M0 0 C10.23 0 20.46 0 31 0 C31 10.23 31 20.46 31 31 C20.77 31 10.54 31 0 31 C0 20.77 0 10.54 0 0 Z " fill="#ED7E1A" transform="translate(835,444)"/>
</svg>
